<svg xmlns="http://www.w3.org/2000/svg" viewBox="0 -0.5 87 150" shape-rendering="crispEdges">
<metadata>Made with Pixels to Svg https://codepen.io/shshaw/pen/XbxvNj</metadata>
<path stroke="rgba(82,112,235,0.09803921568627451)" d="M52 13h1M15 33h1M65 34h1M70 43h1M72 49h1M72 50h1M72 51h1M14 52h2M72 52h1M15 54h1M33 59h2M72 59h1M17 62h1M20 62h1M34 62h2M37 62h1M17 63h1M34 63h1M38 63h1M75 72h1M74 75h1M19 80h1" />
<path stroke="rgba(77,115,230,0.0784313725490196)" d="M53 13h1M35 19h1M57 22h1M66 36h1M12 55h1M13 57h1M15 58h1M15 59h1M20 73h1M20 74h1M18 84h1" />
<path stroke="rgba(76,110,230,0.11764705882352941)" d="M52 14h1M52 15h1M56 20h1M57 23h1M59 26h1M61 29h1M22 50h1M16 59h1M42 72h1M22 73h1M22 75h1" />
<path stroke="rgba(83,115,236,0.1568627450980392)" d="M53 14h1M53 15h1M53 16h1M52 17h3M51 18h4M50 19h6M31 20h6M38 20h7M47 20h9M32 21h24M32 22h25M34 23h23M37 24h21M37 25h21M37 26h22M39 27h21M40 28h20M40 29h21M39 30h23M39 31h23M39 32h24M39 33h25M39 34h26M41 35h24M43 36h23M44 37h23M43 38h24M43 39h24M43 40h25M43 41h26M43 42h26M43 43h27M43 44h2M47 44h2M51 44h20M42 45h3M53 45h18M54 46h17M56 47h13M59 48h1M62 48h1M68 48h1M19 50h2M18 51h6M18 52h7M28 52h5M14 53h1M17 53h17M14 54h1M17 54h17M14 55h20M15 56h15M33 56h1M16 57h15M17 58h14M19 59h12M19 60h12M20 61h11M22 62h9M20 63h12M20 64h13M21 65h12M20 66h12M20 67h13M20 68h14M37 68h2M21 69h5M30 69h9M22 70h4M27 70h2M30 70h1M35 70h4M22 71h3M26 71h3M31 71h8M25 72h10M37 72h1M40 72h1M24 73h12M39 73h5M22 74h22M23 75h20M23 76h18M23 77h18M22 78h18M22 79h18M20 80h19M19 81h20M23 82h16M21 83h18M19 84h6M26 84h14M19 85h4M27 85h1M30 85h10M19 86h4M30 86h9M20 87h2M30 87h6M38 87h1" />
<path stroke="rgba(51,102,204,0.0196078431372549)" d="M54 14h1M57 21h1M16 31h1M20 39h1M19 44h1M19 48h1M25 52h1M12 54h1M12 57h1M14 57h1M19 67h1M18 76h1M18 77h1" />
<path stroke="rgba(75,105,240,0.06666666666666667)" d="M54 15h1M32 19h1M38 19h1M71 46h1M17 52h1M13 53h1M16 53h1M19 64h1M19 69h1M21 73h1M22 77h1M18 81h1M19 82h1M69 89h1" />
<path stroke="rgba(0,128,255,0.00784313725490196)" d="M51 16h1M49 18h1M30 19h2M43 19h2M47 19h1M59 25h1M61 28h1M64 32h1M65 33h1M4 35h1M16 36h1M20 37h1M67 37h1M17 38h1M20 42h1M19 43h1M11 45h1M17 59h1M15 60h1M18 61h1M18 62h1M19 76h1M19 77h1M18 83h1" />
<path stroke="rgba(83,110,234,0.1450980392156863)" d="M52 16h1M54 16h1M45 20h1M56 21h1M58 25h1M60 28h1M62 31h1M63 32h1M67 39h1M71 47h1M19 49h1M17 50h2M16 54h1M15 57h1M44 58h2M16 60h1M16 61h1M16 62h1M21 62h1M44 64h1M20 65h1M71 66h1M46 68h1M20 69h1M72 70h1M21 79h1M25 84h1" />
<path stroke="rgba(76,113,236,0.10588235294117647)" d="M51 17h1M50 18h1M42 19h1M49 45h1M56 48h1M14 56h1M18 59h1M20 83h1" />
<path stroke="rgba(73,109,255,0.027450980392156862)" d="M55 17h1M63 31h1M4 34h1M16 35h1M68 39h1M17 40h1M21 42h1M18 43h1M11 44h1M71 44h1M16 51h1M19 68h1M19 73h1M19 74h1M21 77h1" />
<path stroke="rgba(80,112,239,0.12549019607843137)" d="M55 18h1M49 19h1M64 33h1M69 42h1M17 51h1M19 61h1M19 62h1M19 63h1M21 70h1M23 73h1M21 74h1M22 82h1M23 89h1M22 90h1M57 91h1M67 91h1M63 92h1M65 92h2M64 93h1M45 95h1M47 95h1M44 96h1M47 96h1M43 99h1M45 100h1M47 100h1" />
<path stroke="rgba(68,102,238,0.058823529411764705)" d="M33 19h1M48 19h1M62 30h1M15 51h1M18 60h1M19 65h1M21 71h1M21 75h1M22 76h1M20 79h1M19 83h1M65 93h1" />
<path stroke="rgba(68,102,221,0.058823529411764705)" d="M34 19h1M36 19h1M46 20h1M20 49h1" />
<path stroke="rgba(81,116,232,0.08627450980392157)" d="M39 19h1M41 19h1M68 40h1M16 50h1M23 50h1M24 51h1M15 53h1M22 72h1M21 78h1M21 82h1" />
<path stroke="rgba(85,106,234,0.047058823529411764)" d="M40 19h1M58 24h1M60 27h1M15 31h1M67 38h1M69 41h1M18 49h1M73 57h1M16 63h1M72 64h1M72 69h1M74 71h1M73 72h1M15 90h1M15 96h1M15 97h1M41 97h2M39 98h1M16 99h1M30 102h1M32 102h1M38 102h1M13 103h1M39 103h1M37 104h1M13 106h1M42 106h1M18 107h1M12 109h1M24 109h1M19 110h1M21 113h1M20 114h1" />
<path stroke="rgba(77,102,230,0.0392156862745098)" d="M56 19h1M18 38h1M16 39h1M12 45h1M71 45h1M13 52h1M12 56h2M17 61h1M19 66h1M20 82h1M16 92h1M16 94h1M16 95h1M16 97h1M14 98h1M16 98h1M12 99h1M13 101h1M35 101h1M8 102h1M16 105h1M41 105h1M27 107h1M22 108h1M37 108h1M14 109h1M25 109h1M28 109h1M20 112h1M21 114h2" />
<path stroke="rgba(80,112,239,0.06274509803921569)" d="M29 20h1M25 24h1M22 27h1M23 47h1M17 86h1M55 93h1M51 97h1M37 98h1M42 99h1M54 100h1M42 102h1M41 103h1M42 104h1M30 105h1M24 106h1M32 107h1M21 109h1M23 109h1M23 127h1M26 128h1M14 134h1" />
<path stroke="rgba(75,112,236,0.1607843137254902)" d="M30 20h1" />
<path stroke="rgba(80,109,233,0.13725490196078433)" d="M37 20h1M65 35h1M21 50h1M13 54h1M13 55h1M16 58h1M23 86h1M19 87h1M29 87h1M37 87h1M33 88h1" />
<path stroke="rgba(85,117,234,0.18823529411764706)" d="M28 21h1M23 27h1" />
<path stroke="rgba(86,114,234,0.8745098039215686)" d="M29 21h1M22 44h1" />
<path stroke="rgba(86,115,235,0.5372549019607843)" d="M30 21h1" />
<path stroke="rgba(81,109,235,0.24705882352941178)" d="M31 21h1M36 24h1M42 44h1M30 51h2" />
<path stroke="rgba(88,112,239,0.12549019607843137)" d="M27 22h1M25 25h1M22 43h1M23 49h1" />
<path stroke="#5673eb" d="M28 22h3M28 23h3M27 24h6M26 25h10M26 26h10M25 27h12M23 28h16M23 29h16M23 30h15M23 31h15M23 32h15M20 33h17M20 34h8M30 34h8M23 35h3M31 35h7M31 36h9M32 37h11M24 38h1M32 38h10M31 39h11M25 40h1M28 40h1M30 40h12M24 41h18M23 42h19M26 43h16M25 44h17M23 45h18M25 46h15M25 47h15M24 48h14M25 49h11M26 50h9M27 51h1" />
<path stroke="rgba(85,115,235,0.5411764705882353)" d="M31 22h1M33 23h1M36 25h1M38 34h1M43 37h1M42 41h1" />
<path stroke="rgba(85,114,236,0.3764705882352941)" d="M27 23h1M20 45h1" />
<path stroke="rgba(85,114,233,0.8784313725490196)" d="M31 23h1M37 27h1M37 33h1" />
<path stroke="rgba(82,114,232,0.3411764705882353)" d="M32 23h1M42 42h1" />
<path stroke="rgba(85,115,234,0.8117647058823529)" d="M26 24h1M24 47h1" />
<path stroke="rgba(85,114,234,0.7607843137254902)" d="M33 24h1" />
<path stroke="rgba(83,114,238,0.2901960784313726)" d="M34 24h1M38 27h1M38 32h1M38 33h1M42 36h1" />
<path stroke="rgba(85,115,234,0.43529411764705883)" d="M35 24h1M20 32h1" />
<path stroke="rgba(86,114,235,0.5607843137254902)" d="M25 26h1M23 44h1" />
<path stroke="rgba(84,114,233,0.6509803921568628)" d="M36 26h1M42 38h1" />
<path stroke="rgba(85,114,234,0.6235294117647059)" d="M24 27h1M21 32h1M28 34h1" />
<path stroke="rgba(86,115,234,0.6274509803921569)" d="M22 28h1M22 29h1M24 43h1M24 46h1" />
<path stroke="rgba(84,114,235,0.4392156862745098)" d="M39 28h1" />
<path stroke="rgba(84,115,236,0.592156862745098)" d="M39 29h1M38 30h1" />
<path stroke="rgba(86,114,235,0.5019607843137255)" d="M22 30h1" />
<path stroke="rgba(90,105,240,0.06666666666666667)" d="M14 31h1M12 44h1" />
<path stroke="rgba(82,109,237,0.10980392156862745)" d="M17 31h1M14 32h1M21 40h1M73 55h1M73 56h1" />
<path stroke="rgba(85,102,238,0.058823529411764705)" d="M18 31h1M20 38h1M72 72h1" />
<path stroke="rgba(85,114,235,0.7529411764705882)" d="M22 31h1M20 44h1M22 46h1" />
<path stroke="rgba(80,110,235,0.2)" d="M38 31h1M40 35h1M27 52h1" />
<path stroke="rgba(89,115,242,0.0784313725490196)" d="M15 32h2M16 33h1M19 39h1" />
<path stroke="rgba(87,112,236,0.1607843137254902)" d="M17 32h2M17 33h2M18 34h1M18 35h1M22 36h1M21 37h3M22 38h1M18 39h1M22 39h1M22 40h1" />
<path stroke="rgba(85,114,238,0.4117647058823529)" d="M19 32h1" />
<path stroke="rgba(85,114,235,0.9372549019607843)" d="M22 32h1" />
<path stroke="rgba(85,114,234,0.3764705882352941)" d="M19 33h1" />
<path stroke="rgba(85,106,255,0.047058823529411764)" d="M15 34h1M19 36h1M18 40h1" />
<path stroke="rgba(85,110,238,0.11764705882352941)" d="M16 34h2M17 35h1M19 35h1M22 41h1M31 56h1M33 64h1" />
<path stroke="rgba(88,116,235,0.25098039215686274)" d="M19 34h1" />
<path stroke="rgba(86,115,236,0.5843137254901961)" d="M29 34h1" />
<path stroke="rgba(85,115,235,0.9411764705882353)" d="M20 35h2M25 43h1M40 46h1M33 51h1" />
<path stroke="rgba(85,115,234,0.8196078431372549)" d="M22 35h1M41 45h1" />
<path stroke="rgba(86,115,235,0.8862745098039215)" d="M26 35h1M25 36h1" />
<path stroke="rgba(84,114,235,0.6039215686274509)" d="M27 35h1M26 36h1" />
<path stroke="rgba(86,114,234,0.5803921568627451)" d="M28 35h2M27 36h3M25 37h5M26 38h5M29 39h1" />
<path stroke="rgba(86,114,235,0.8352941176470589)" d="M30 35h1" />
<path stroke="rgba(85,116,234,0.4823529411764706)" d="M38 35h1" />
<path stroke="rgba(84,113,235,0.592156862745098)" d="M39 35h1" />
<path stroke="rgba(85,99,227,0.07058823529411765)" d="M17 36h2" />
<path stroke="rgba(82,116,232,0.26666666666666666)" d="M20 36h1" />
<path stroke="rgba(85,112,231,0.29411764705882354)" d="M21 36h1" />
<path stroke="rgba(85,115,235,0.7058823529411765)" d="M23 36h1" />
<path stroke="rgba(85,114,234,0.7294117647058823)" d="M24 36h1" />
<path stroke="rgba(86,116,236,0.6745098039215687)" d="M30 36h1" />
<path stroke="rgba(84,114,235,0.9372549019607843)" d="M40 36h1M42 39h1" />
<path stroke="rgba(83,113,231,0.33725490196078434)" d="M41 36h1" />
<path stroke="rgba(82,114,232,0.5333333333333333)" d="M24 37h1" />
<path stroke="rgba(85,114,236,0.5764705882352941)" d="M30 37h1M26 39h1" />
<path stroke="rgba(85,113,235,0.6470588235294118)" d="M31 37h1" />
<path stroke="rgba(87,109,240,0.13725490196078433)" d="M19 38h1" />
<path stroke="rgba(85,108,240,0.12941176470588237)" d="M21 38h1" />
<path stroke="rgba(85,112,235,0.29411764705882354)" d="M23 38h1" />
<path stroke="rgba(86,113,236,0.5686274509803921)" d="M25 38h1" />
<path stroke="rgba(85,114,235,0.9450980392156862)" d="M31 38h1" />
<path stroke="rgba(87,107,235,0.14901960784313725)" d="M17 39h1M18 44h1" />
<path stroke="rgba(85,106,234,0.1411764705882353)" d="M21 39h1" />
<path stroke="rgba(83,108,235,0.20392156862745098)" d="M23 39h1" />
<path stroke="rgba(85,114,233,0.8823529411764706)" d="M24 39h1M42 40h1" />
<path stroke="rgba(85,114,235,0.8313725490196079)" d="M25 39h1" />
<path stroke="rgba(86,114,236,0.5725490196078431)" d="M27 39h1" />
<path stroke="rgba(85,115,235,0.6)" d="M28 39h1" />
<path stroke="rgba(86,115,236,0.6196078431372549)" d="M30 39h1" />
<path stroke="rgba(88,108,235,0.25098039215686274)" d="M23 40h1" />
<path stroke="rgba(85,114,235,0.8784313725490196)" d="M24 40h1" />
<path stroke="rgba(85,114,235,0.9411764705882353)" d="M26 40h1" />
<path stroke="rgba(86,114,235,0.8823529411764706)" d="M27 40h1" />
<path stroke="rgba(85,115,236,0.7843137254901961)" d="M29 40h1" />
<path stroke="rgba(78,111,233,0.09019607843137255)" d="M21 41h1" />
<path stroke="rgba(85,113,235,0.6352941176470588)" d="M23 41h1" />
<path stroke="rgba(84,116,237,0.3803921568627451)" d="M22 42h1" />
<path stroke="rgba(86,115,236,0.3137254901960784)" d="M20 43h1M23 43h1M21 45h1" />
<path stroke="rgba(82,113,234,0.38823529411764707)" d="M42 43h1" />
<path stroke="rgba(86,114,234,0.8156862745098039)" d="M21 44h1M23 46h1" />
<path stroke="rgba(85,114,235,0.6901960784313725)" d="M24 44h1M24 49h1" />
<path stroke="rgba(80,117,233,0.13725490196078433)" d="M45 44h1M50 44h1M43 46h1M53 46h1M41 72h1M43 72h1" />
<path stroke="rgba(76,110,238,0.11764705882352941)" d="M46 44h1M38 67h1" />
<path stroke="rgba(81,107,235,0.14901960784313725)" d="M49 44h1M52 46h1M34 54h1M34 55h1M30 56h1M32 56h1M31 62h1M44 62h1M32 66h1M44 66h1M35 68h1M27 69h1M46 69h1M33 70h1M25 71h1M30 71h1M39 72h1M29 86h1" />
<path stroke="rgba(85,115,235,0.8784313725490196)" d="M22 45h1M25 50h1M26 51h1" />
<path stroke="rgba(91,118,237,0.10980392156862745)" d="M45 45h1M57 48h1M35 54h1M40 71h1" />
<path stroke="rgba(88,118,235,0.10196078431372549)" d="M46 45h1M50 45h1M46 46h5M41 47h11M53 47h1M40 48h16M37 49h1M39 49h18M37 50h19M36 51h18M34 52h20M35 53h15M52 53h2M36 54h11M36 55h11M35 56h10M34 57h10M32 58h1M34 58h9M35 59h8M32 60h2M36 60h8M32 61h3M36 61h8M32 62h2M38 62h6M35 63h2M39 63h5M34 64h10M34 65h3M38 65h5M34 66h3M38 66h5M34 67h1M36 67h1M39 67h6M40 68h6M40 69h6M40 70h6M41 71h4M67 80h2M66 81h7M66 82h7M66 83h5M67 84h4M69 85h2M70 86h1M23 90h1M26 90h1M23 91h4M22 92h6M20 128h6M17 129h9M15 130h11M14 131h12M14 132h11M14 133h7" />
<path stroke="rgba(85,116,240,0.12941176470588237)" d="M47 45h1M42 46h1M55 47h1M54 52h1M35 55h1M46 56h2M31 59h1M32 63h1M36 68h1M68 79h1M71 80h1M24 85h1M28 85h1M18 86h1M24 86h2M18 87h1M24 87h5M17 88h2M22 88h8M36 88h3M17 89h6M24 89h2M27 89h12M17 90h5M28 90h11M17 91h5M29 91h10M18 92h4M29 92h11M19 93h4M28 93h13M19 94h5M25 94h17M17 95h25M18 96h23M18 97h21M18 98h19M38 98h1M18 99h17M41 99h1M19 100h13M33 100h2M40 100h2M19 101h13M39 101h1M15 102h1M17 102h13M16 103h12M33 103h3M16 104h8M25 104h3M32 104h3M19 105h5M25 105h3M33 105h2M14 106h2M19 106h4M25 106h2M13 107h3M19 107h4M31 107h1M12 108h3M20 108h1M20 109h1M22 109h1" />
<path stroke="rgba(80,120,231,0.12549019607843137)" d="M48 45h1M52 45h1M44 46h1M33 67h1M35 67h1M39 70h1" />
<path stroke="rgba(82,118,237,0.10980392156862745)" d="M51 45h1M51 46h1M34 53h1M31 58h1M39 68h1M39 69h1M27 90h1M28 91h1M28 92h1" />
<path stroke="rgba(82,118,239,0.3058823529411765)" d="M41 46h1" />
<path stroke="rgba(85,113,236,0.10588235294117647)" d="M45 46h1M54 51h1M34 56h1M31 57h1M33 65h1M43 65h1M45 67h2M24 90h1M26 93h2" />
<path stroke="rgba(84,116,235,0.25098039215686274)" d="M22 47h1M25 51h1" />
<path stroke="rgba(85,111,235,0.15294117647058825)" d="M40 47h1M36 50h1M56 50h1M47 55h1M72 80h1" />
<path stroke="rgba(78,118,235,0.10196078431372549)" d="M52 47h1M32 57h1M32 59h1M33 66h1M25 90h1M22 91h1" />
<path stroke="rgba(75,112,232,0.13333333333333333)" d="M54 47h1M31 60h1M31 61h1M34 68h1" />
<path stroke="rgba(83,108,230,0.1568627450980392)" d="M69 47h1" />
<path stroke="rgba(81,110,238,0.17254901960784313)" d="M70 47h1" />
<path stroke="rgba(85,115,236,0.8784313725490196)" d="M38 48h1" />
<path stroke="rgba(86,116,236,0.3607843137254902)" d="M39 48h1" />
<path stroke="rgba(87,117,233,0.13725490196078433)" d="M58 48h1" />
<path stroke="rgba(81,106,230,0.1607843137254902)" d="M60 48h1" />
<path stroke="rgba(77,113,231,0.16862745098039217)" d="M61 48h1" />
<path stroke="rgba(81,104,232,0.17254901960784313)" d="M63 48h1" />
<path stroke="rgba(77,107,231,0.16862745098039217)" d="M64 48h1M67 48h1" />
<path stroke="rgba(81,112,236,0.1607843137254902)" d="M65 48h1M39 81h1" />
<path stroke="rgba(81,114,233,0.1843137254901961)" d="M66 48h1" />
<path stroke="rgba(83,105,233,0.1803921568627451)" d="M69 48h1" />
<path stroke="rgba(87,112,235,0.19607843137254902)" d="M70 48h2M61 49h1M63 49h5M70 49h2M57 50h15M56 51h16M55 52h17M55 53h17M51 54h1M55 54h18M48 55h25M48 56h25M46 57h26M46 58h26M44 59h1M46 59h26M45 60h27M45 61h28M45 62h27M45 63h27M45 64h27M45 65h26M47 66h24M48 67h23M48 68h23M47 69h25M47 70h25M46 71h25M45 72h13M60 72h11M45 73h11M61 73h12M74 73h1M45 74h9M61 74h13M46 75h7M61 75h13M49 76h4M61 76h13M50 77h4M60 77h14M51 78h2M54 78h1M60 78h13M51 79h2M60 79h6M70 79h3M57 80h9M57 81h5" />
<path stroke="rgba(85,113,241,0.07058823529411765)" d="M72 48h1M75 71h1M17 94h1M11 97h1M12 98h1M15 98h1M17 98h1M11 99h1M8 100h1M35 100h1M34 101h1M10 104h1M15 104h1M14 105h1M17 105h1M24 105h1M36 106h1M26 107h1M25 108h1M20 113h1" />
<path stroke="rgba(84,114,234,0.7019607843137254)" d="M36 49h1" />
<path stroke="rgba(85,115,240,0.2)" d="M38 49h1" />
<path stroke="rgba(85,115,237,0.16470588235294117)" d="M57 49h1M50 54h1M54 54h1M45 57h1M44 60h1M69 79h1" />
<path stroke="rgba(81,109,239,0.1843137254901961)" d="M58 49h1M45 59h1M46 70h1" />
<path stroke="rgba(83,111,238,0.1803921568627451)" d="M59 49h2M68 49h1M72 60h1M72 62h1M71 72h1M73 73h1" />
<path stroke="rgba(80,112,239,0.18823529411764706)" d="M62 49h1M69 49h1M46 76h1M53 81h1M56 81h1M57 82h1M59 82h1M40 86h1M39 88h1M58 90h1M62 90h1M44 97h1M54 98h1" />
<path stroke="rgba(82,112,232,0.26666666666666666)" d="M24 50h1" />
<path stroke="rgba(86,114,236,0.6392156862745098)" d="M35 50h1M34 51h1" />
<path stroke="rgba(85,113,235,0.8196078431372549)" d="M28 51h1M32 51h1" />
<path stroke="rgba(84,114,232,0.6509803921568628)" d="M29 51h1" />
<path stroke="rgba(86,114,231,0.2549019607843137)" d="M35 51h1" />
<path stroke="rgba(83,113,237,0.16862745098039217)" d="M55 51h1M49 54h1M44 65h1M71 67h1M47 68h1M71 68h1M74 72h1M66 79h1M70 80h1" />
<path stroke="rgba(79,108,232,0.17647058823529413)" d="M26 52h1" />
<path stroke="rgba(83,114,236,0.43137254901960786)" d="M33 52h1" />
<path stroke="rgba(85,113,246,0.10588235294117647)" d="M50 53h1M47 54h1M44 57h1M43 58h1M43 66h1" />
<path stroke="rgba(81,107,228,0.14901960784313725)" d="M51 53h1" />
<path stroke="rgba(90,115,239,0.12156862745098039)" d="M54 53h1M44 61h1M45 71h1M65 81h1" />
<path stroke="rgba(83,108,236,0.1568627450980392)" d="M72 53h1M72 63h1M43 75h1M41 76h1M39 80h1M39 86h1" />
<path stroke="rgba(87,102,233,0.13725490196078433)" d="M48 54h1M67 79h1" />
<path stroke="rgba(81,112,230,0.1607843137254902)" d="M52 54h1M44 63h1M47 67h1" />
<path stroke="rgba(90,112,240,0.13333333333333333)" d="M53 54h1" />
<path stroke="rgba(85,113,227,0.03529411764705882)" d="M73 54h1M72 71h1" />
<path stroke="rgba(88,114,229,0.11372549019607843)" d="M45 56h1" />
<path stroke="rgba(88,118,245,0.10196078431372549)" d="M33 57h1" />
<path stroke="rgba(87,109,233,0.1843137254901961)" d="M72 57h1M71 65h1M71 71h1M73 78h1" />
<path stroke="rgba(85,117,244,0.09411764705882353)" d="M33 58h1M35 60h1M36 62h1M37 63h1M14 94h1M9 100h1M12 101h1M17 101h1M31 104h1M36 104h1M15 105h1M33 106h1M21 108h1M19 109h1M23 110h1M25 110h1" />
<path stroke="rgba(82,107,230,0.12156862745098039)" d="M72 58h1M74 74h1M73 79h1" />
<path stroke="rgba(85,113,238,0.17647058823529413)" d="M43 59h1M45 66h1" />
<path stroke="rgba(82,112,245,0.09803921568627451)" d="M34 60h1" />
<path stroke="rgba(74,106,244,0.09411764705882353)" d="M35 61h1" />
<path stroke="rgba(85,85,255,0.011764705882352941)" d="M73 61h1M73 81h1M73 83h1M58 93h1M45 96h1M52 98h1M48 99h1M53 100h1M60 100h1M21 134h1M15 135h1" />
<path stroke="rgba(73,109,228,0.10980392156862745)" d="M33 63h1" />
<path stroke="rgba(85,117,234,0.09411764705882353)" d="M37 65h1M37 66h1M71 83h2M71 84h1M26 129h1M13 132h1M21 133h1" />
<path stroke="rgba(85,106,234,0.18823529411764706)" d="M46 66h1M59 72h1M53 78h1" />
<path stroke="rgba(79,114,246,0.11372549019607843)" d="M37 67h1" />
<path stroke="rgba(78,111,229,0.15294117647058825)" d="M26 69h1M39 71h1M24 72h1M36 73h1" />
<path stroke="rgba(81,114,242,0.14901960784313725)" d="M28 69h1M36 72h1" />
<path stroke="rgba(78,111,235,0.15294117647058825)" d="M29 69h1M26 70h1M31 70h1M29 71h1M38 73h1M46 94h1M54 95h1M52 96h1M59 96h1M47 98h1M55 98h1" />
<path stroke="rgba(81,114,235,0.14901960784313725)" d="M29 70h1M35 72h1" />
<path stroke="rgba(78,105,229,0.15294117647058825)" d="M32 70h1" />
<path stroke="rgba(78,105,235,0.15294117647058825)" d="M34 70h1M38 72h1M37 73h1M29 85h1" />
<path stroke="rgba(78,113,234,0.1411764705882353)" d="M23 72h1M26 85h1M22 87h1M30 88h1" />
<path stroke="rgba(85,111,242,0.15294117647058825)" d="M44 72h1" />
<path stroke="rgba(81,109,233,0.1843137254901961)" d="M58 72h1M59 78h1" />
<path stroke="rgba(83,108,242,0.1568627450980392)" d="M44 73h1M44 74h1" />
<path stroke="rgba(80,112,228,0.18823529411764706)" d="M56 73h1M54 74h1M60 74h1M59 77h1" />
<path stroke="rgba(80,106,234,0.18823529411764706)" d="M57 73h1M54 77h1M50 79h1M56 80h1M62 81h1" />
<path stroke="rgba(85,115,235,0.2)" d="M58 73h2M57 74h3M56 75h4M56 76h3M56 77h3M55 78h4M55 79h1M54 80h2" />
<path stroke="rgba(85,112,239,0.18823529411764706)" d="M60 73h1M55 74h1M45 75h1M53 75h1M48 76h1M53 76h1M60 76h1M49 77h1M57 79h1M59 79h1M50 80h3M57 90h1M47 93h1M54 93h1M51 96h1M58 99h1" />
<path stroke="rgba(85,85,212,0.023529411764705882)" d="M75 73h1M74 77h1M12 93h1M11 94h1M15 94h1M12 96h1M11 100h1M38 100h1M16 101h1M38 101h1M31 102h1M36 102h1M29 103h1M31 103h1M32 106h1M24 107h1M36 107h1M11 108h1M26 108h1M15 109h1M27 109h1M24 110h1M26 110h1M22 113h1M26 114h1" />
<path stroke="rgba(80,112,234,0.18823529411764706)" d="M56 74h1M60 75h1M47 76h1M56 79h1M58 79h1M53 80h1M64 81h1M60 82h1" />
<path stroke="rgba(78,109,234,0.19215686274509805)" d="M44 75h1M54 81h1" />
<path stroke="rgba(83,114,239,0.19215686274509805)" d="M54 75h1" />
<path stroke="rgba(83,109,234,0.19215686274509805)" d="M55 75h1M55 76h1" />
<path stroke="rgba(75,104,238,0.17254901960784313)" d="M42 76h1M41 77h1" />
<path stroke="rgba(76,112,240,0.19607843137254902)" d="M43 76h1" />
<path stroke="rgba(83,113,235,0.20392156862745098)" d="M44 76h1M42 77h6M41 78h8M41 79h9M40 80h9M40 81h13M40 82h17M63 82h1M40 83h24M41 84h25M41 85h26M41 86h27M40 87h27M40 88h26M40 89h25M40 90h17M59 90h3M41 91h16M58 91h3M41 92h16M60 92h1M42 93h5M48 93h6M43 94h3M48 94h5M43 95h2M48 95h6M48 96h2M53 96h1M53 97h1M58 97h1M56 98h1M58 98h1M44 99h1M44 100h1M46 100h1" />
<path stroke="rgba(82,112,235,0.19607843137254902)" d="M45 76h1M58 82h1" />
<path stroke="rgba(80,106,228,0.18823529411764706)" d="M54 76h1M53 79h1" />
<path stroke="rgba(83,114,234,0.19215686274509805)" d="M59 76h1M55 77h1" />
<path stroke="rgba(81,104,232,0.08627450980392157)" d="M74 76h1" />
<path stroke="rgba(82,112,240,0.19607843137254902)" d="M48 77h1M55 81h1M62 82h1" />
<path stroke="rgba(79,115,237,0.16470588235294117)" d="M40 78h1" />
<path stroke="rgba(82,107,235,0.19607843137254902)" d="M49 78h1M49 80h1M63 81h1" />
<path stroke="rgba(88,109,234,0.19215686274509805)" d="M50 78h1" />
<path stroke="rgba(79,108,238,0.17647058823529413)" d="M40 79h1M39 82h1M40 85h1" />
<path stroke="rgba(81,114,239,0.1843137254901961)" d="M54 79h1M64 82h1M64 83h1" />
<path stroke="rgba(85,119,238,0.11764705882352941)" d="M66 80h1M69 80h1" />
<path stroke="rgba(80,96,239,0.06274509803921569)" d="M73 80h1" />
<path stroke="rgba(80,106,239,0.18823529411764706)" d="M61 82h1" />
<path stroke="rgba(85,113,255,0.10588235294117647)" d="M65 82h1M68 85h1" />
<path stroke="rgba(64,96,223,0.03137254901960784)" d="M73 82h1M16 91h1M12 92h1M14 92h1M16 93h1M42 98h1M12 100h1M16 100h1M40 101h1M42 101h1M14 102h1M10 103h1M37 103h1M14 104h1M28 104h1M10 105h1M36 105h1M37 106h1M34 107h1M16 108h1M18 109h1M29 109h1M25 113h1M21 127h1M14 130h1M13 131h1" />
<path stroke="rgba(79,109,237,0.16470588235294117)" d="M39 83h1M39 87h1M57 93h1M47 94h1M53 94h1M50 96h1M46 98h1M57 100h1M46 101h1" />
<path stroke="rgba(82,115,239,0.12156862745098039)" d="M65 83h1M16 90h1M32 100h1M39 100h1M42 103h1M31 105h2" />
<path stroke="rgba(78,114,234,0.19215686274509805)" d="M40 84h1" />
<path stroke="rgba(81,116,238,0.17254901960784313)" d="M66 84h1" />
<path stroke="rgba(70,116,232,0.043137254901960784)" d="M72 84h1M71 85h1M71 86h1M22 127h1M18 128h1M23 133h1M16 134h1M18 134h1" />
<path stroke="rgba(76,103,234,0.1450980392156863)" d="M18 85h1" />
<path stroke="rgba(76,110,227,0.1450980392156863)" d="M23 85h1" />
<path stroke="rgba(80,120,247,0.12549019607843137)" d="M25 85h1M26 86h1M28 86h1M23 87h1M19 88h1M21 88h1M31 88h2" />
<path stroke="rgba(83,115,242,0.1568627450980392)" d="M67 85h1" />
<path stroke="rgba(82,112,240,0.13333333333333333)" d="M27 86h1M69 87h1M20 88h1M35 88h1M68 88h1M66 89h3M65 90h4M63 91h4M62 92h1M64 92h1" />
<path stroke="rgba(75,110,238,0.17254901960784313)" d="M68 86h1" />
<path stroke="rgba(78,108,245,0.10196078431372549)" d="M69 86h1" />
<path stroke="rgba(81,116,243,0.08627450980392157)" d="M17 87h1M18 93h1M60 93h1M55 94h1M59 95h1M16 96h1M57 96h1M39 97h1M52 97h1M53 98h1M35 99h1M34 102h1M12 107h1M16 107h1M15 108h1M19 108h1M26 109h1M16 129h1" />
<path stroke="rgba(75,112,240,0.13333333333333333)" d="M36 87h1M34 88h1" />
<path stroke="rgba(75,106,236,0.1607843137254902)" d="M67 87h1M63 90h1" />
<path stroke="rgba(83,103,241,0.1450980392156863)" d="M68 87h1" />
<path stroke="rgba(82,102,235,0.09803921568627451)" d="M70 87h1" />
<path stroke="rgba(85,128,255,0.023529411764705882)" d="M71 87h1M25 127h1M15 129h1M20 134h1" />
<path stroke="rgba(0,0,255,0.00784313725490196)" d="M16 88h1M11 92h1M10 93h1M67 93h1M12 94h2M65 94h1M11 95h1M14 95h1M11 96h1M13 96h1M9 98h1M40 98h1M9 99h2M42 100h1M0 102h1M12 102h2M14 103h1M38 103h1M30 104h1M41 104h1M41 106h1M38 107h1M27 108h1M30 108h1M32 108h1M38 108h1M30 110h1M19 111h1M24 111h1M21 112h1M22 115h1" />
<path stroke="rgba(81,104,243,0.17254901960784313)" d="M66 88h1M61 92h1" />
<path stroke="rgba(82,112,248,0.13333333333333333)" d="M67 88h1" />
<path stroke="rgba(76,113,246,0.10588235294117647)" d="M69 88h1" />
<path stroke="rgba(64,64,255,0.01568627450980392)" d="M70 88h1M69 90h1M67 92h1M66 93h1M62 94h1" />
<path stroke="rgba(85,119,246,0.11764705882352941)" d="M16 89h1M18 94h1M17 99h1M39 99h2M18 100h1M16 102h1M35 102h1M36 103h1M35 105h1M16 106h1" />
<path stroke="rgba(88,123,246,0.11372549019607843)" d="M26 89h1" />
<path stroke="rgba(81,104,238,0.17254901960784313)" d="M39 89h1" />
<path stroke="rgba(81,107,242,0.14901960784313725)" d="M65 89h1M42 95h1" />
<path stroke="rgba(83,110,241,0.1450980392156863)" d="M39 90h1" />
<path stroke="rgba(81,107,248,0.14901960784313725)" d="M64 90h1" />
<path stroke="rgba(78,108,235,0.10196078431372549)" d="M27 91h1M24 93h2M57 97h1M47 99h1M53 99h1M47 101h1" />
<path stroke="rgba(85,116,247,0.12941176470588237)" d="M39 91h1M40 92h1" />
<path stroke="rgba(82,107,240,0.19607843137254902)" d="M40 91h1M61 91h1" />
<path stroke="rgba(83,107,243,0.16862745098039217)" d="M62 91h1" />
<path stroke="rgba(78,111,244,0.09019607843137255)" d="M68 91h1M61 94h1" />
<path stroke="rgba(77,115,242,0.0784313725490196)" d="M15 92h1M17 92h1M12 95h1M17 97h1M10 98h2M17 100h1M18 101h1M33 102h1M11 104h1M35 106h1M30 107h1M37 107h1M20 110h1M19 114h1" />
<path stroke="rgba(79,114,237,0.11372549019607843)" d="M57 92h1M15 93h1M46 95h1M43 96h1M54 96h1M54 97h1M54 99h1M58 100h1M44 101h1M57 101h1M15 103h1M24 104h1M18 105h1M23 106h1M34 106h1" />
<path stroke="rgba(81,107,242,0.07450980392156863)" d="M58 92h1M62 93h2M55 95h1M46 97h1M56 99h1" />
<path stroke="rgba(80,109,240,0.13725490196078433)" d="M59 92h1M54 94h1M49 97h1M59 97h1M43 98h1M46 99h1M57 99h1M59 99h1" />
<path stroke="rgba(82,118,246,0.10980392156862745)" d="M11 93h1M14 93h1M15 101h1M32 103h1M27 106h1M26 113h1" />
<path stroke="rgba(78,118,245,0.10196078431372549)" d="M13 93h1M17 96h1M41 96h1M38 99h1M8 101h1M9 102h1M39 102h1M28 103h1M35 104h1M25 107h1M24 108h1M13 109h1M22 110h1" />
<path stroke="rgba(64,64,191,0.01568627450980392)" d="M17 93h1M13 95h1M15 95h1M36 99h1M15 100h1M32 101h1M10 102h1M11 103h1M28 105h1M42 105h1M31 106h1M33 107h1M21 110h1M29 110h1M23 111h1M19 113h1" />
<path stroke="rgba(82,115,247,0.12156862745098039)" d="M23 93h1" />
<path stroke="rgba(83,107,237,0.16862745098039217)" d="M41 93h1M42 94h1" />
<path stroke="rgba(85,85,255,0.023529411764705882)" d="M56 93h1M57 94h1M58 95h1M61 95h1M43 97h1M47 97h1M60 98h1M52 99h1M55 99h1" />
<path stroke="rgba(85,113,255,0.03529411764705882)" d="M59 93h1M50 97h1M56 100h1M58 101h1M17 134h1M19 134h1" />
<path stroke="rgba(78,113,241,0.1411764705882353)" d="M61 93h1" />
<path stroke="rgba(76,119,246,0.11764705882352941)" d="M24 94h1" />
<path stroke="rgba(78,98,235,0.050980392156862744)" d="M59 94h1M45 97h1M48 97h1M55 97h1M43 100h1M45 101h1" />
<path stroke="rgba(77,102,255,0.0392156862745098)" d="M64 94h1" />
<path stroke="rgba(83,103,234,0.1450980392156863)" d="M42 96h1" />
<path stroke="rgba(79,113,238,0.17647058823529413)" d="M58 96h1M44 98h1M57 98h1M59 98h1" />
<path stroke="rgba(73,109,237,0.054901960784313725)" d="M10 97h1M40 97h1M41 98h1M9 101h1M11 101h1M33 101h1M41 101h1M12 103h1M11 105h1M18 106h1M23 107h1" />
<path stroke="rgba(79,106,237,0.11372549019607843)" d="M56 97h1M45 99h1" />
<path stroke="rgba(90,120,240,0.06666666666666667)" d="M24 127h1M22 133h1" />
<path stroke="rgba(64,128,255,0.01568627450980392)" d="M17 128h1" />
<path stroke="rgba(81,121,242,0.07450980392156863)" d="M19 128h1M26 130h1M15 134h1" />
<path stroke="rgba(0,0,255,0.00392156862745098)" d="M27 129h1M26 131h1M13 134h1M14 135h1" />
<path stroke="rgba(78,118,235,0.050980392156862744)" d="M25 132h1" />
<path stroke="rgba(85,109,231,0.08235294117647059)" d="M13 133h1" />
</svg>